<svg fill="none" height="482" viewBox="0 0 402 482" width="402" xmlns="http://www.w3.org/2000/svg"><path d="m21.5 155.375c0-127.9513 27.4237-155.375 155.375-155.375h48.25c127.951 0 155.375 27.4237 155.375 155.375v48.25c0 127.951-27.424 155.375-155.375 155.375h-48.25c-127.9513 0-155.375-27.424-155.375-155.375z" fill="#ff6700"/><g clip-rule="evenodd" fill-rule="evenodd"><path d="m216.315 195.121c-.621-12.589.513-33.352 3.771-67.861 7.098-75.1657 25.506-83.2221 44.183-73.8717s34.694 39.1335 24.643 76.3217c-6.432 23.797-25.269 60.206-38.581 77.631 25.517 16.023 36.829 43.409 32.072 64.529-4.517 20.059-37.384 37.229-81.513 37.229-44.13 0-76.595-16.811-81.514-37.229-5.108-21.201 6.4-48.685 32.195-64.682-13.306-17.481-32.056-53.755-38.47-77.486-10.051-37.1875 5.966-66.9705 24.643-76.3209s37.678-1.1769 44.183 73.8719c2.992 34.526 4.037 55.295 3.414 67.884 4.931-.724 10.116-1.109 15.549-1.109 5.391 0 10.535.379 15.425 1.093zm-15.509 67.515c30.45 0 58.578-9.632 58.578-15.137 0-14.211-23.173-34.735-58.578-34.735-35.404 0-58.536 20.378-58.578 34.735-.016 5.599 28.128 15.137 58.578 15.137zm-39.38-65.2c1.379 2.383 1.308 2.247 2.128 3.598 2.52-.893 6.598-2.549 10.408-3.555.07-17.244-1.684-28.58-4.815-60.122-5.365-54.0735-13.684-60.9633-21.255-55.2924-7.57 5.6708-13.305 26.1124-7.759 53.2794 4.013 19.66 15.296 51.733 21.293 62.092zm78.734 0c-1.379 2.383-1.308 2.247-2.128 3.598-2.521-.893-6.598-2.549-10.409-3.555-.069-17.244 1.685-28.58 4.815-60.122 5.366-54.0735 13.685-60.9633 21.255-55.2924 7.571 5.6708 13.305 26.1124 7.76 53.2794-4.014 19.66-15.296 51.733-21.293 62.092z" fill="#fff"/><path d="m301.491 477.562c0 1.178.955 2.132 2.132 2.132h9.577c1.183 0 2.14-.952 2.134-2.134-.026-5.357-.08-19.665.011-29.85.108-12.069 5.793-19.303 19.334-18.491 1.277.076 2.4-.908 2.4-2.186v-6.871c0-1.118-.877-2.051-1.994-2.1-27.49-1.198-33.594 15.285-33.594 31.509zm-182.408 2.513c3.813.593 7.795.89 11.947.89 8.22 0 14.49-1.441 18.811-4.322 4.322-2.965 6.483-7.414 6.483-13.345 0-3.559-.636-6.44-1.907-8.643-1.186-2.288-3.178-4.237-5.974-5.847s-6.567-3.135-11.312-4.575c-5.169-1.695-8.939-3.009-11.312-3.941-2.288-1.016-3.432-2.711-3.432-5.084 0-2.288 1.102-3.813 3.305-4.575 2.288-.763 5.635-1.144 10.041-1.144 2.457 0 5.084.254 7.88.762 1.733.306 3.373.688 4.922 1.147 1.441.427 2.959-.612 2.959-2.114v-6.92c0-.909-.575-1.723-1.446-1.981-1.896-.56-4.083-1.042-6.562-1.444-3.135-.508-6.44-.762-9.914-.762-8.812 0-15.209 1.525-19.192 4.575-3.982 2.966-5.974 7.203-5.974 12.711 0 3.558.721 6.439 2.161 8.642 1.441 2.203 3.474 4.025 6.101 5.466 2.627 1.355 5.719 2.627 9.278 3.813 3.729 1.186 6.779 2.203 9.152 3.05 2.457.848 4.279 1.78 5.465 2.796 1.271 1.017 1.906 2.415 1.906 4.195 0 2.457-1.016 4.109-3.05 4.957-2.034.847-5.423 1.271-10.168 1.271-3.135 0-6.44-.297-9.914-.89-2.334-.399-4.535-.912-6.602-1.54-1.43-.435-2.931.602-2.931 2.096v7.075c0 .91.576 1.724 1.448 1.983 2.191.65 4.801 1.216 7.831 1.698zm134.261.89c-10.846 0-18.811-2.712-23.895-8.135-5-5.423-7.499-13.176-7.499-23.259 0-10.084 2.542-17.837 7.626-23.26s13.006-8.134 23.768-8.134c10.846 0 18.811 2.711 23.895 8.134s7.626 13.176 7.626 23.26c0 10.083-2.542 17.836-7.626 23.259-5 5.423-12.965 8.135-23.895 8.135zm0-11.694c6.355 0 10.846-1.525 13.472-4.575 2.712-3.135 4.068-8.177 4.068-15.125s-1.356-11.948-4.068-14.998c-2.626-3.051-7.117-4.576-13.472-4.576-6.271 0-10.762 1.525-13.473 4.576-2.627 3.05-3.94 8.05-3.94 14.998s1.313 11.99 3.94 15.125c2.711 3.05 7.202 4.575 13.473 4.575zm123.784 11.694c-10.507 0-18.642-2.585-24.404-7.753-5.762-5.169-8.642-13.092-8.642-23.768 0-9.66 2.457-17.286 7.371-22.879 4.915-5.592 12.372-8.388 22.37-8.388 9.151 0 16.015 2.415 20.591 7.245 4.66 4.745 6.99 10.888 6.99 18.429v9.053c0 1.177-.954 2.132-2.132 2.132h-41.972c.678 5.847 2.796 9.872 6.355 12.075s8.982 3.304 16.269 3.304c3.05 0 6.186-.296 9.406-.889 1.967-.363 3.777-.789 5.429-1.278 1.441-.427 2.959.616 2.959 2.118v5.645c0 .848-.499 1.62-1.29 1.925-2.402.925-5.107 1.638-8.115 2.139-3.474.593-7.203.89-11.185.89zm-19.828-34.953h31.902v-4.194c0-4.152-1.143-7.372-3.431-9.66-2.288-2.373-6.143-3.559-11.566-3.559-6.44 0-10.889 1.398-13.346 4.194-2.373 2.797-3.559 7.203-3.559 13.219zm-278.5537 33.682c-1.1777 0-2.1323-.955-2.1323-2.133v-55.981c0-1.178.9546-2.132 2.1323-2.132h9.5895c1.1776 0 2.1322.954 2.1322 2.132v55.981c0 1.178-.9546 2.133-2.1322 2.133zm-77.26313-3.407c-1.048155 1.407-.04437 3.407 1.70971 3.407h10.59752c.6762 0 1.3123-.321 1.7144-.865l14.8694-20.107 14.6885 20.098c.4015.549 1.0411.874 1.7215.874h10.4738c1.7688 0 2.7685-2.03 1.6904-3.432l-20.9123-27.2 20.0391-26.186c1.0736-1.403.0733-3.428-1.6933-3.428h-10.1868c-.6788 0-1.3171.323-1.7189.87l-14.102 19.212-14.1056-19.212c-.4017-.547-1.04-.87-1.7188-.87h-10.63963c-1.75506 0-2.75859 2.002-1.70846 3.408l19.57049 26.206zm183.79883 3.407c-1.177 0-2.132-.955-2.132-2.133v-47.265h-14.926c-1.177 0-2.132-.954-2.132-2.132v-6.584c0-1.178.955-2.132 2.132-2.132h43.179c1.177 0 2.132.954 2.132 2.132v6.584c0 1.178-.955 2.132-2.132 2.132h-14.399v47.265c0 1.178-.954 2.133-2.132 2.133z" fill="#898989"/></g></svg>